<mxfile host="app.diagrams.net" modified="2023-12-11T10:56:35.793Z" agent="Mozilla/5.0 (Macintosh; Intel Mac OS X 10.15; rv:120.0) Gecko/20100101 Firefox/120.0" etag="EsJ28jYRyIkdT1pPRLKl" version="22.1.7" type="device">
  <diagram name="Page-1" id="OAHS1JsE_OpqDj1NzvV4">
    <mxGraphModel dx="2460" dy="2289" grid="1" gridSize="10" guides="1" tooltips="1" connect="1" arrows="1" fold="1" page="1" pageScale="1" pageWidth="827" pageHeight="1169" math="0" shadow="0">
      <root>
        <mxCell id="0" />
        <mxCell id="1" parent="0" />
        <mxCell id="9z9G1PEieMClhel0g9xa-41" style="edgeStyle=orthogonalEdgeStyle;rounded=0;orthogonalLoop=1;jettySize=auto;html=1;entryX=0;entryY=0.25;entryDx=0;entryDy=0;endArrow=none;endFill=0;" edge="1" parent="1" source="9z9G1PEieMClhel0g9xa-1" target="9z9G1PEieMClhel0g9xa-5">
          <mxGeometry relative="1" as="geometry" />
        </mxCell>
        <mxCell id="9z9G1PEieMClhel0g9xa-1" value="&lt;div&gt;&lt;font color=&quot;#ffcc99&quot;&gt;Cart&lt;/font&gt; : &lt;font color=&quot;#ffe599&quot;&gt;Fragment&lt;/font&gt;&lt;/div&gt;&lt;div&gt;&lt;br&gt;&lt;/div&gt;&lt;div&gt;JSONTools jsonTools&lt;br&gt;&lt;/div&gt;&lt;div&gt;&lt;br&gt;&lt;/div&gt;&lt;div&gt;CreateProductCart(CartProduct)&lt;/div&gt;&lt;div&gt;TotalCartPrice()&lt;/div&gt;" style="rounded=0;whiteSpace=wrap;html=1;" vertex="1" parent="1">
          <mxGeometry x="-260" y="380" width="200" height="110" as="geometry" />
        </mxCell>
        <mxCell id="9z9G1PEieMClhel0g9xa-2" value="&lt;div&gt;&lt;font color=&quot;#ffcc99&quot;&gt;CartProduct&lt;/font&gt;&lt;br&gt;&lt;br&gt;Product product&lt;br&gt;Int quantity&lt;br&gt;&lt;/div&gt;&lt;div&gt;&lt;br&gt;&lt;/div&gt;&lt;div&gt;GetTotalPrice() -&amp;gt; Int&lt;br&gt;&lt;/div&gt;" style="rounded=0;whiteSpace=wrap;html=1;" vertex="1" parent="1">
          <mxGeometry x="665" y="585" width="160" height="115" as="geometry" />
        </mxCell>
        <mxCell id="9z9G1PEieMClhel0g9xa-32" style="edgeStyle=orthogonalEdgeStyle;rounded=0;orthogonalLoop=1;jettySize=auto;html=1;entryX=0;entryY=0.5;entryDx=0;entryDy=0;endArrow=none;endFill=0;" edge="1" parent="1" source="9z9G1PEieMClhel0g9xa-3" target="9z9G1PEieMClhel0g9xa-9">
          <mxGeometry relative="1" as="geometry" />
        </mxCell>
        <mxCell id="9z9G1PEieMClhel0g9xa-3" value="&lt;font color=&quot;#ffcc99&quot;&gt;Cash&lt;/font&gt;&lt;br&gt;&lt;br&gt;&lt;div&gt;String accountNumber&lt;/div&gt;&lt;div&gt;String accountName&lt;/div&gt;&lt;div&gt;Float? amount&lt;br&gt;&lt;/div&gt;" style="rounded=0;whiteSpace=wrap;html=1;" vertex="1" parent="1">
          <mxGeometry x="500" y="-75" width="169" height="100" as="geometry" />
        </mxCell>
        <mxCell id="9z9G1PEieMClhel0g9xa-26" style="edgeStyle=orthogonalEdgeStyle;rounded=0;orthogonalLoop=1;jettySize=auto;html=1;entryX=0;entryY=0.5;entryDx=0;entryDy=0;endArrow=none;endFill=0;" edge="1" parent="1" source="9z9G1PEieMClhel0g9xa-4" target="9z9G1PEieMClhel0g9xa-17">
          <mxGeometry relative="1" as="geometry">
            <Array as="points">
              <mxPoint x="48" y="60" />
              <mxPoint x="48" y="-50" />
            </Array>
          </mxGeometry>
        </mxCell>
        <mxCell id="9z9G1PEieMClhel0g9xa-28" style="edgeStyle=orthogonalEdgeStyle;rounded=0;orthogonalLoop=1;jettySize=auto;html=1;endArrow=none;endFill=0;" edge="1" parent="1" source="9z9G1PEieMClhel0g9xa-4" target="9z9G1PEieMClhel0g9xa-9">
          <mxGeometry relative="1" as="geometry">
            <Array as="points">
              <mxPoint x="875" y="100" />
            </Array>
          </mxGeometry>
        </mxCell>
        <mxCell id="9z9G1PEieMClhel0g9xa-34" style="edgeStyle=orthogonalEdgeStyle;rounded=0;orthogonalLoop=1;jettySize=auto;html=1;entryX=0;entryY=0.5;entryDx=0;entryDy=0;endArrow=none;endFill=0;" edge="1" parent="1" source="9z9G1PEieMClhel0g9xa-4" target="9z9G1PEieMClhel0g9xa-18">
          <mxGeometry relative="1" as="geometry">
            <Array as="points">
              <mxPoint x="-160" y="330" />
              <mxPoint x="-300" y="330" />
              <mxPoint x="-300" y="550" />
            </Array>
          </mxGeometry>
        </mxCell>
        <mxCell id="9z9G1PEieMClhel0g9xa-35" style="edgeStyle=orthogonalEdgeStyle;rounded=0;orthogonalLoop=1;jettySize=auto;html=1;entryX=0;entryY=0.5;entryDx=0;entryDy=0;endArrow=none;endFill=0;" edge="1" parent="1" source="9z9G1PEieMClhel0g9xa-4" target="9z9G1PEieMClhel0g9xa-19">
          <mxGeometry relative="1" as="geometry">
            <Array as="points">
              <mxPoint x="-180" y="310" />
              <mxPoint x="-320" y="310" />
              <mxPoint x="-320" y="655" />
            </Array>
          </mxGeometry>
        </mxCell>
        <mxCell id="9z9G1PEieMClhel0g9xa-36" style="edgeStyle=orthogonalEdgeStyle;rounded=0;orthogonalLoop=1;jettySize=auto;html=1;entryX=0;entryY=0.5;entryDx=0;entryDy=0;endArrow=none;endFill=0;" edge="1" parent="1" source="9z9G1PEieMClhel0g9xa-4" target="9z9G1PEieMClhel0g9xa-1">
          <mxGeometry relative="1" as="geometry">
            <Array as="points">
              <mxPoint x="-140" y="350" />
              <mxPoint x="-280" y="350" />
              <mxPoint x="-280" y="435" />
            </Array>
          </mxGeometry>
        </mxCell>
        <mxCell id="9z9G1PEieMClhel0g9xa-38" style="edgeStyle=orthogonalEdgeStyle;rounded=0;orthogonalLoop=1;jettySize=auto;html=1;endArrow=none;endFill=0;" edge="1" parent="1" source="9z9G1PEieMClhel0g9xa-4" target="9z9G1PEieMClhel0g9xa-6">
          <mxGeometry relative="1" as="geometry">
            <Array as="points">
              <mxPoint x="120" y="160" />
            </Array>
          </mxGeometry>
        </mxCell>
        <mxCell id="9z9G1PEieMClhel0g9xa-39" style="edgeStyle=orthogonalEdgeStyle;rounded=0;orthogonalLoop=1;jettySize=auto;html=1;entryX=0;entryY=0.5;entryDx=0;entryDy=0;endArrow=none;endFill=0;" edge="1" parent="1" source="9z9G1PEieMClhel0g9xa-4" target="9z9G1PEieMClhel0g9xa-7">
          <mxGeometry relative="1" as="geometry">
            <Array as="points">
              <mxPoint x="170" y="130" />
              <mxPoint x="170" y="275" />
            </Array>
          </mxGeometry>
        </mxCell>
        <mxCell id="9z9G1PEieMClhel0g9xa-4" value="&lt;div&gt;&lt;font color=&quot;#ffcc99&quot;&gt;JSONTools&lt;/font&gt;&lt;/div&gt;&lt;div&gt;&lt;br&gt;&lt;/div&gt;&lt;div&gt;readProductsJson(InputStream) -&amp;gt; Array&amp;lt;Product&amp;gt;&lt;br&gt;&lt;/div&gt;&lt;div&gt;readCartJson(Context) -&amp;gt; MutableList&amp;lt;CartProduct&amp;gt;&lt;br&gt;&lt;/div&gt;&lt;div&gt;writeCartJson(Context, MutableList&amp;lt;CardProduct&amp;gt;)&lt;br&gt;&lt;/div&gt;&lt;div&gt;emptyCartJson(Context)&lt;/div&gt;&lt;div&gt;addProductToCart(Context, Product)&lt;/div&gt;&lt;div&gt;removeProductFromCart(Context, Product)&lt;/div&gt;&lt;div&gt;readUserJson(Context) -&amp;gt; User&lt;br&gt;&lt;/div&gt;&lt;div&gt;writeUserJson(Context, User)&lt;br&gt;&lt;/div&gt;&lt;div&gt;addUserEmail(Context, String)&lt;/div&gt;&lt;div&gt;addUserServer(Context, String)&lt;/div&gt;&lt;div&gt;emptyUserJson(Context)&lt;/div&gt;&lt;div&gt;addCashJson(Context, Cash)&lt;/div&gt;&lt;div&gt;readCashJson(Context) -&amp;gt; Cash&lt;br&gt;&lt;/div&gt;&lt;div&gt;writeCashJson(Context, Cash)&lt;/div&gt;&lt;div&gt;emptyCashJson(Context)&lt;br&gt;&lt;/div&gt;" style="rounded=0;whiteSpace=wrap;html=1;" vertex="1" parent="1">
          <mxGeometry x="-325" y="-10" width="330" height="280" as="geometry" />
        </mxCell>
        <mxCell id="9z9G1PEieMClhel0g9xa-5" value="&lt;font color=&quot;#ffcc99&quot;&gt;MainActivity&lt;/font&gt; : &lt;font color=&quot;#ffe599&quot;&gt;AppCompatActivity&lt;/font&gt;&lt;br&gt;&lt;br&gt;&lt;div&gt;Store store&lt;/div&gt;&lt;div&gt;Cart cart&lt;/div&gt;&lt;div&gt;Settings settings&lt;/div&gt;&lt;div&gt;&lt;br&gt;&lt;/div&gt;&lt;div&gt;replaceFragment(Fragment)&lt;br&gt;&lt;/div&gt;" style="rounded=0;whiteSpace=wrap;html=1;" vertex="1" parent="1">
          <mxGeometry x="110" y="485" width="210" height="130" as="geometry" />
        </mxCell>
        <mxCell id="9z9G1PEieMClhel0g9xa-6" value="&lt;font color=&quot;#ffcc99&quot;&gt;Login&lt;/font&gt; : &lt;font color=&quot;#ffe599&quot;&gt;AppCompatActivity&lt;/font&gt;&lt;br&gt;&lt;br&gt;JSONTools json" style="rounded=0;whiteSpace=wrap;html=1;" vertex="1" parent="1">
          <mxGeometry x="40" y="300" width="160" height="70" as="geometry" />
        </mxCell>
        <mxCell id="9z9G1PEieMClhel0g9xa-7" value="&lt;div&gt;&lt;font color=&quot;#ffcc99&quot;&gt;NFC&lt;/font&gt; : &lt;font color=&quot;#ffe599&quot;&gt;AppCompatActivity&lt;/font&gt;&lt;br&gt;&lt;/div&gt;&lt;div&gt;&lt;br&gt;&lt;/div&gt;&lt;div&gt;TextView? jsonTextFront&lt;br&gt;&lt;/div&gt;&lt;div&gt;NfcAdapter? nfcAdapter&lt;/div&gt;&lt;div&gt;PendingIntent? pendingIntent&lt;/div&gt;&lt;div&gt;Array&amp;lt;IntentFilter&amp;gt; writingTagFilters&lt;/div&gt;&lt;div&gt;Boolean writeMode&lt;/div&gt;&lt;div&gt;Tag? myTag&lt;/div&gt;&lt;div&gt;NFCTools nfcTools&lt;/div&gt;&lt;div&gt;JSONTools jsonTools&lt;br&gt;&lt;/div&gt;&lt;div&gt;&lt;br&gt;&lt;/div&gt;&lt;div&gt;readFromIntent(Intent)&lt;br&gt;writeModeOn()&lt;/div&gt;&lt;div&gt;writeModeOff()&lt;/div&gt;" style="rounded=0;whiteSpace=wrap;html=1;" vertex="1" parent="1">
          <mxGeometry x="270" y="170" width="249" height="230" as="geometry" />
        </mxCell>
        <mxCell id="9z9G1PEieMClhel0g9xa-40" style="edgeStyle=orthogonalEdgeStyle;rounded=0;orthogonalLoop=1;jettySize=auto;html=1;entryX=1;entryY=0.5;entryDx=0;entryDy=0;endArrow=none;endFill=0;" edge="1" parent="1" source="9z9G1PEieMClhel0g9xa-8" target="9z9G1PEieMClhel0g9xa-7">
          <mxGeometry relative="1" as="geometry" />
        </mxCell>
        <mxCell id="9z9G1PEieMClhel0g9xa-8" value="&lt;div&gt;&lt;font color=&quot;#ffcc99&quot;&gt;NFCTools&lt;/font&gt;&lt;/div&gt;&lt;div&gt;&lt;br&gt;&lt;/div&gt;&lt;div&gt;byteArrayToHexString(ByteArray) -&amp;gt; String&lt;/div&gt;&lt;div&gt;extrctDataMemory(Intent) -&amp;gt; Cash&lt;/div&gt;" style="rounded=0;whiteSpace=wrap;html=1;" vertex="1" parent="1">
          <mxGeometry x="610" y="235" width="270" height="100" as="geometry" />
        </mxCell>
        <mxCell id="9z9G1PEieMClhel0g9xa-9" value="&lt;div&gt;&lt;font color=&quot;#ffcc99&quot;&gt;Pay&lt;/font&gt; : &lt;font color=&quot;#ffe599&quot;&gt;AppCompatActivity&lt;/font&gt;&lt;br&gt;&lt;/div&gt;&lt;div&gt;&lt;br&gt;&lt;/div&gt;&lt;div&gt;JSONTools jsonTools&lt;/div&gt;&lt;div&gt;Cash? cash&lt;/div&gt;&lt;div&gt;LinearLayout? payContent&lt;/div&gt;&lt;div&gt;TextView? payText&lt;br&gt;&lt;/div&gt;" style="rounded=0;whiteSpace=wrap;html=1;" vertex="1" parent="1">
          <mxGeometry x="740" y="-80" width="270" height="110" as="geometry" />
        </mxCell>
        <mxCell id="9z9G1PEieMClhel0g9xa-43" style="edgeStyle=orthogonalEdgeStyle;rounded=0;orthogonalLoop=1;jettySize=auto;html=1;entryX=0.5;entryY=0;entryDx=0;entryDy=0;endArrow=none;endFill=0;" edge="1" parent="1" source="9z9G1PEieMClhel0g9xa-10" target="9z9G1PEieMClhel0g9xa-2">
          <mxGeometry relative="1" as="geometry" />
        </mxCell>
        <mxCell id="9z9G1PEieMClhel0g9xa-10" value="&lt;div align=&quot;center&quot;&gt;&lt;font color=&quot;#ffcc99&quot;&gt;Product&lt;/font&gt;&lt;/div&gt;&lt;div align=&quot;center&quot;&gt;&lt;br&gt;&lt;/div&gt;&lt;div align=&quot;center&quot;&gt;String? name&lt;/div&gt;&lt;div align=&quot;center&quot;&gt;Int price&lt;/div&gt;&lt;div align=&quot;center&quot;&gt;String? description&lt;/div&gt;&lt;div align=&quot;center&quot;&gt;String image&lt;br&gt;&lt;/div&gt;" style="rounded=0;whiteSpace=wrap;html=1;align=center;" vertex="1" parent="1">
          <mxGeometry x="610" y="410" width="270" height="110" as="geometry" />
        </mxCell>
        <mxCell id="9z9G1PEieMClhel0g9xa-17" value="&lt;div&gt;&lt;font color=&quot;#ffcc99&quot;&gt;QRCodeScanner&lt;/font&gt; : &lt;font color=&quot;#ffe599&quot;&gt;AppCompatActivity&lt;/font&gt;&lt;br&gt;&lt;/div&gt;&lt;div&gt;&lt;br&gt;&lt;/div&gt;&lt;div&gt;CodeScanner codeScanner&lt;/div&gt;&lt;div&gt;JSONTools jsonTools&lt;/div&gt;&lt;div&gt;&lt;br&gt;&lt;/div&gt;&lt;div&gt;extractCash(String) -&amp;gt; Cash&lt;br&gt;&lt;/div&gt;&lt;div&gt;codeScanner()&lt;/div&gt;&lt;div&gt;setupPermissions()&lt;/div&gt;&lt;div&gt;makeRequest()&lt;/div&gt;&lt;div&gt;onRequestPermissionsResult(int, Array&amp;lt;String&amp;gt;, IntArray)&lt;br&gt;&lt;/div&gt;" style="rounded=0;whiteSpace=wrap;html=1;" vertex="1" parent="1">
          <mxGeometry x="90" y="-140" width="340" height="180" as="geometry" />
        </mxCell>
        <mxCell id="9z9G1PEieMClhel0g9xa-22" style="edgeStyle=orthogonalEdgeStyle;rounded=0;orthogonalLoop=1;jettySize=auto;html=1;entryX=0;entryY=0.5;entryDx=0;entryDy=0;endArrow=none;endFill=0;" edge="1" parent="1" source="9z9G1PEieMClhel0g9xa-18" target="9z9G1PEieMClhel0g9xa-5">
          <mxGeometry relative="1" as="geometry" />
        </mxCell>
        <mxCell id="9z9G1PEieMClhel0g9xa-18" value="&lt;div&gt;&lt;font color=&quot;#ffcc99&quot;&gt;Settings&lt;/font&gt; : &lt;font color=&quot;#ffe599&quot;&gt;Fragment&lt;/font&gt;&lt;/div&gt;&lt;div&gt;&lt;br&gt;&lt;/div&gt;&lt;div&gt;JSONTools&lt;br&gt;&lt;/div&gt;&lt;div&gt;&lt;br&gt;&lt;/div&gt;&lt;div&gt;disconnectUser()&lt;br&gt;&lt;/div&gt;" style="rounded=0;whiteSpace=wrap;html=1;" vertex="1" parent="1">
          <mxGeometry x="-260" y="500" width="160" height="100" as="geometry" />
        </mxCell>
        <mxCell id="9z9G1PEieMClhel0g9xa-42" style="edgeStyle=orthogonalEdgeStyle;rounded=0;orthogonalLoop=1;jettySize=auto;html=1;entryX=0;entryY=0.75;entryDx=0;entryDy=0;endArrow=none;endFill=0;" edge="1" parent="1" source="9z9G1PEieMClhel0g9xa-19" target="9z9G1PEieMClhel0g9xa-5">
          <mxGeometry relative="1" as="geometry">
            <Array as="points">
              <mxPoint x="30" y="655" />
              <mxPoint x="30" y="582" />
            </Array>
          </mxGeometry>
        </mxCell>
        <mxCell id="9z9G1PEieMClhel0g9xa-19" value="&lt;div&gt;&lt;font color=&quot;#ffcc99&quot;&gt;Store&lt;/font&gt; : &lt;font color=&quot;#ffe599&quot;&gt;Fragment&lt;/font&gt;&lt;/div&gt;&lt;div&gt;&lt;br&gt;&lt;/div&gt;&lt;div&gt;JSONTools jsonTools&lt;br&gt;&lt;/div&gt;" style="rounded=0;whiteSpace=wrap;html=1;" vertex="1" parent="1">
          <mxGeometry x="-260" y="620" width="160" height="70" as="geometry" />
        </mxCell>
        <mxCell id="9z9G1PEieMClhel0g9xa-20" value="&lt;div&gt;&lt;font color=&quot;#ffcc99&quot;&gt;User&lt;/font&gt;&lt;/div&gt;&lt;div&gt;&lt;br&gt;&lt;/div&gt;&lt;div&gt;String email&lt;/div&gt;&lt;div&gt;String server&lt;br&gt;&lt;/div&gt;" style="rounded=0;whiteSpace=wrap;html=1;" vertex="1" parent="1">
          <mxGeometry x="410" y="460" width="127" height="90" as="geometry" />
        </mxCell>
      </root>
    </mxGraphModel>
  </diagram>
</mxfile>
